<svg xmlns="http://www.w3.org/2000/svg" viewBox="0 0 64 64"><title>Artboard-21</title><g id="Teacher"><path d="M24,16v6.27A1.9947,1.9947,0,0,0,23,22H21V20c-2.85.14-4.89-3.9-5-4-3,4-9,4-9,4v2H5a1.9947,1.9947,0,0,0-1,.27V15a7.9978,7.9978,0,0,1,8-8h3a3.9946,3.9946,0,0,1,4,4A5.0018,5.0018,0,0,1,24,16Z" style="fill:#343544"/><path d="M20,21h3a2,2,0,0,1,2,2v2a2,2,0,0,1-2,2H20a0,0,0,0,1,0,0V21A0,0,0,0,1,20,21Z" style="fill:#eac2b9"/><path d="M3,21H6a2,2,0,0,1,2,2v2a2,2,0,0,1-2,2H3a0,0,0,0,1,0,0V21A0,0,0,0,1,3,21Z" transform="translate(11 48) rotate(-180)" style="fill:#eac2b9"/><path d="M18,30.74V37l-4,3-4-3V30.74a6.9792,6.9792,0,0,0,8,0Z" style="fill:#eac2b9"/><path d="M40.84,30a2.012,2.012,0,0,0-1.43.59L29,41l-7-3-4-2-4,3-4-3L6,38,1,41V53H24V47l6,2L42.42,33.27A2.021,2.021,0,0,0,40.84,30Z" style="fill:#f25757"/><path d="M16,15c-3,4-9,4-9,4v7a7,7,0,0,0,14,0V19C18.1456,19.1354,16.1052,15.0978,16,15Z" style="fill:#ffddd4"/><polygon points="10 36 14 39 10 42 6 38 10 36" style="fill:#d63434"/><polygon points="18 36 14 39 18 42 22 38 18 36" style="fill:#d63434"/><rect x="1" y="57" width="28" height="6" style="fill:#ffb125"/><rect x="29" y="6" width="34" height="28" style="fill:#48acff"/><path d="M40.84,30a2.012,2.012,0,0,0-1.43.59l-5.1616,5.1616.07.058c.0166.0146.0342.0273.0517.041l3.8168,2.7812L42.42,33.27A2.021,2.021,0,0,0,40.84,30Z" style="fill:#ffddd4"/><path d="M31.0606,53H1v4H31.0606c.5188,0,.9394-.2985.9394-.6667V53.6667C32,53.2985,31.5794,53,31.0606,53Z" style="fill:#fcd354"/><rect x="25" y="1" width="38" height="5" style="fill:#337fef"/><path d="M63,33H46.52a1,1,0,0,0,0,2H63a1,1,0,0,0,0-2Z" style="fill:#231e23"/><path d="M63,5H26V2H63a1,1,0,0,0,0-2H25a1,1,0,0,0-1,1V6a1,1,0,0,0,1,1h3V34a1,1,0,0,0,1,1h4.5859l-4.8144,4.8145-6.3467-2.72L19,35.3818V32.235A8.0086,8.0086,0,0,0,21.7367,28H23a3.0033,3.0033,0,0,0,3-3V23a2.9817,2.9817,0,0,0-1-2.22V16a6.01,6.01,0,0,0-5.0869-5.9307A5.0085,5.0085,0,0,0,15,6H12a9.01,9.01,0,0,0-9,9v5.78A2.9817,2.9817,0,0,0,2,23v2a3.0033,3.0033,0,0,0,3,3H6.2633A8.0086,8.0086,0,0,0,9,32.235v3.1468L5.5527,37.1055c-.0108.0054-.0164.0169-.027.0227-.0129.0071-.0276.0067-.04.0144l-5,3a1,1,0,1,0,1.0292,1.7148l4.3305-2.5982L9.293,42.707A.9995.9995,0,0,0,10.6,42.8L14,40.25l3.4,2.55a.9995.9995,0,0,0,1.3071-.0928l3.5214-3.5213,6.3776,2.7332a.9983.9983,0,0,0,1.101-.2119L35.06,36.3539l2.3167,1.6882L29.65,47.8291l-5.334-1.7773a.95.95,0,0,0-.8969.1556A.9776.9776,0,0,0,23,47v5H6V47a1,1,0,0,0-2,0v5H1a1,1,0,0,0,0,2H31v2H1a1,1,0,0,0,0,2H28v5a1,1,0,0,0,2,0V58h2a1,1,0,0,0,1-1V53a1,1,0,0,0-1-1H25V48.387l4.6836,1.5612A.986.986,0,0,0,30,50a1,1,0,0,0,.7847-.38l12.42-15.7324a3.018,3.018,0,0,0-4.503-4.0039L35.5859,33H30V7H63a1,1,0,0,0,0-2ZM24,25a1.0009,1.0009,0,0,1-1,1H22V22h1a1.0009,1.0009,0,0,1,1,1ZM5,15a7.0081,7.0081,0,0,1,7-7h3a3.0033,3.0033,0,0,1,3,3,1,1,0,0,0,1,1,4.0042,4.0042,0,0,1,4,4v4H22V19a.998.998,0,0,0-.31-.7236.9843.9843,0,0,0-.7373-.2754c-.73.02-2.2031-.3545-3.9873-3.3438a1.5406,1.5406,0,0,0-.2841-.39A1,1,0,0,0,15.2,14.4C12.5439,17.9414,7.0537,18,6.9985,18A1.0017,1.0017,0,0,0,6,19v1H5ZM5,26a1.0009,1.0009,0,0,1-1-1V23a1.0009,1.0009,0,0,1,1-1H6v4Zm3,0V19.9434a13.3952,13.3952,0,0,0,7.873-3.29c1.4991,2.15,2.9493,2.9971,4.127,3.2549V26A6,6,0,0,1,8,26Zm6,8a7.95,7.95,0,0,0,3-.589V35.5l-3,2.25L11,35.5V33.411A7.95,7.95,0,0,0,14,34Zm-3.9062,6.68L7.688,38.2744l2.2065-1.1035L12.3335,39Zm7.8125,0L15.6665,39l2.439-1.8291,2.2065,1.1035Zm22.2094-9.3809a1.0455,1.0455,0,0,1,1.6363.2754.9976.9976,0,0,1-.1167,1.0742l-3.0176,3.8222L36.4924,34.922Z" style="fill:#231e23"/><path d="M63,9H52a1,1,0,0,0,0,2H63a1,1,0,0,0,0-2Z" style="fill:#231e23"/><path d="M63,13H52a1,1,0,0,0,0,2H63a1,1,0,0,0,0-2Z" style="fill:#231e23"/><path d="M63,17H52a1,1,0,0,0,0,2H63a1,1,0,0,0,0-2Z" style="fill:#231e23"/><path d="M63,21H34a1,1,0,0,0,0,2H63a1,1,0,0,0,0-2Z" style="fill:#231e23"/><path d="M63,25H34a1,1,0,0,0,0,2H63a1,1,0,0,0,0-2Z" style="fill:#231e23"/><path d="M63,29H46.5a1,1,0,0,0,0,2H63a1,1,0,0,0,0-2Z" style="fill:#231e23"/><path d="M47.707,13.293a.9994.9994,0,0,0-1.414,0L45,14.5859,43.707,13.293a1,1,0,0,0-1.414,1.414L43.5859,16,42.293,17.293a1,1,0,1,0,1.414,1.414L45,17.4141l1.293,1.2929a1,1,0,0,0,1.414-1.414L46.4141,16l1.2929-1.293A.9994.9994,0,0,0,47.707,13.293Z" style="fill:#231e23"/><path d="M49,10a1,1,0,0,0-1-1H41a1,1,0,0,0-.8945.5527L37,15.7637l-1.1055-2.211A1,1,0,0,0,35,13H33a1,1,0,0,0,0,2h1.3818l1.7237,3.4473a1,1,0,0,0,1.789,0L41.6182,11H48A1,1,0,0,0,49,10Z" style="fill:#231e23"/></g></svg>