<?xml version="1.0" encoding="utf-8"?>
<!-- Generator: Adobe Illustrator 18.0.0, SVG Export Plug-In . SVG Version: 6.00 Build 0)  -->
<!DOCTYPE svg PUBLIC "-//W3C//DTD SVG 1.1//EN" "http://www.w3.org/Graphics/SVG/1.1/DTD/svg11.dtd">
<svg version="1.1" id="Icon_Set" xmlns="http://www.w3.org/2000/svg" xmlns:xlink="http://www.w3.org/1999/xlink" x="0px" y="0px"
	 viewBox="0 0 256 256" style="enable-background:new 0 0 256 256;" xml:space="preserve">
<style type="text/css">
	.st0{fill:#484771;}
	.st1{fill:#F1C48B;}
	.st2{fill:#D5E6F7;}
	.st3{fill:#A0D1F2;}
	.st4{fill:#FD919F;}
	.st5{fill:#E0667D;}
	.st6{fill:#504774;}
	.st7{fill:#7BACF1;}
	.st8{fill:#FFFFFF;}
	.st9{fill:#D4E7F8;}
	.st10{fill:#A3D0F1;}
	.st11{fill:#4C4372;}
	.st12{fill:#7BABF3;}
	.st13{fill:#FD919E;}
	.st14{fill:#D3E6F8;}
	.st15{fill:#E8677D;}
	.st16{fill:#A4CFF2;}
</style>
<g>
	<g>
		<circle class="st1" cx="128" cy="128" r="103.873"/>
	</g>
	<g>
		<path class="st8" d="M108.007,137.119l-14.2-14.2l-30.595,30.595l11.709,11.709l8.685,15.9l29.123,29.046
			c0.21,0.294,0.44,0.578,0.704,0.842l11.385,11.385c2.583,2.583,6.77,2.583,9.352,0l0,0c2.581-2.581,2.582-6.765,0.004-9.348
			c2.583,2.578,6.767,2.577,9.347-0.004c2.581-2.581,2.582-6.764,0.005-9.347c2.583,2.577,6.766,2.575,9.346-0.005
			c2.581-2.581,2.583-6.763,0.005-9.347c2.583,2.577,6.766,2.576,9.347-0.005c2.583-2.583,2.583-6.77,0-9.353l-11.386-11.385
			l-32.954-32.744L108.007,137.119z"/>
	</g>
	<g>
		<g>
			<path class="st14" d="M129.928,217.287l-11.385-11.385c-0.264-0.264-0.494-0.548-0.704-0.842l-29.123-29.046l-8.685-15.9
				l-11.709-11.709l-5.11,5.11l11.709,11.709l8.685,15.9l29.123,29.046c0.21,0.294,0.44,0.578,0.704,0.842l11.385,11.385
				c2.583,2.583,6.77,2.583,9.352,0c0.943-0.944,1.538-2.102,1.792-3.317C133.851,219.52,131.567,218.926,129.928,217.287z"/>
		</g>
	</g>
	<g>
		<path class="st8" d="M162.193,113.649L147.992,128h-19.143c-2.97,0-5.818,1.028-7.917,3.128l-8.004,7.929l4.959,1.84
			l32.954,32.725l10.157,10.147l10.309-10.313l8.084-15.963l13.399-13.324L162.193,113.649z"/>
	</g>
	<g>
		<path class="st14" d="M185.092,140.86l-9.963,9.963c-1.081,1.081-1.948,2.355-2.557,3.757l-5.752,13.246
			c-0.645,1.485-1.579,2.826-2.748,3.944l-7.698,7.367l4.624,4.623l10.309-10.308l8.084-15.96l10.874-10.874L185.092,140.86z"/>
	</g>
	<g>
		<path class="st11" d="M129.494,227.333c-2.567,0-4.981-1-6.798-2.814l-11.385-11.387c-0.303-0.302-0.587-0.632-0.865-1.002
			l-28.958-28.883c-0.204-0.203-0.377-0.434-0.515-0.686l-8.479-15.522l-11.404-11.404c-0.563-0.563-0.879-1.325-0.879-2.121
			s0.316-1.559,0.879-2.121l30.595-30.595c1.172-1.172,3.07-1.172,4.242,0l13.745,13.744l9.275,3.512
			c0.395,0.149,0.753,0.38,1.052,0.678l32.954,32.744l11.393,11.392c1.816,1.815,2.816,4.229,2.816,6.798s-1,4.982-2.816,6.798
			c-1.756,1.756-4.072,2.749-6.545,2.812c-0.063,2.376-0.999,4.732-2.808,6.54c-1.756,1.756-4.071,2.749-6.545,2.813
			c-0.063,2.375-0.999,4.731-2.807,6.539c-1.756,1.756-4.071,2.749-6.545,2.812c-0.063,2.376-0.998,4.732-2.807,6.54
			C134.476,226.333,132.062,227.333,129.494,227.333z M86.031,179.305l28.815,28.74c0.118,0.117,0.227,0.245,0.323,0.38
			c0.135,0.188,0.26,0.341,0.384,0.465l11.385,11.386c1.365,1.362,3.745,1.364,5.11,0c1.407-1.407,1.408-3.698,0.002-5.107
			c-1.17-1.172-1.169-3.069,0.002-4.24c1.172-1.171,3.07-1.173,4.24-0.002c1.366,1.363,3.743,1.361,5.107-0.002
			c1.406-1.407,1.408-3.698,0.003-5.107c-1.169-1.172-1.168-3.069,0.003-4.239c1.172-1.171,3.068-1.172,4.24-0.003
			c1.364,1.362,3.741,1.361,5.105-0.002c1.407-1.407,1.408-3.698,0.003-5.106c-1.169-1.172-1.168-3.069,0.003-4.24
			s3.067-1.172,4.24-0.003c0.682,0.681,1.588,1.056,2.552,1.056l0,0c0.965,0,1.872-0.376,2.555-1.059s1.059-1.59,1.059-2.555
			s-0.376-1.873-1.059-2.556l-11.386-11.385l-32.494-32.286l-9.279-3.514c-0.397-0.15-0.758-0.384-1.059-0.685l-12.08-12.079
			l-26.353,26.353l9.588,9.588c0.202,0.202,0.375,0.432,0.512,0.683L86.031,179.305z"/>
	</g>
	<g>
		<path class="st11" d="M160.997,186.77c-0.768,0-1.534-0.292-2.12-0.878l-10.157-10.147l-32.486-32.26l-4.351-1.614
			c-0.96-0.356-1.672-1.178-1.889-2.179c-0.216-1.002,0.094-2.044,0.821-2.765l8.005-7.93c2.573-2.574,6.139-3.997,10.028-3.997
			h17.892l13.319-13.286c0.562-0.566,1.325-0.714,2.123-0.714c0.003,0,0.007,0,0.01,0c0.794,0,1.557,0.14,2.119,0.7l30.596,30.434
			c0.564,0.563,0.882,1.285,0.881,2.082c-0.001,0.798-0.319,1.541-0.885,2.103l-13.056,12.972l-7.865,15.526
			c-0.144,0.283-0.331,0.538-0.555,0.763l-10.309,10.312C162.533,186.478,161.765,186.77,160.997,186.77z M118.378,137.88
			l0.552,0.205c0.401,0.148,0.766,0.382,1.07,0.684l32.954,32.725l8.041,8.034l7.851-7.854l7.867-15.535
			c0.146-0.285,0.334-0.546,0.562-0.771l11.263-11.2l-26.331-26.268l-12.081,12.211c-0.563,0.569-1.332,0.89-2.133,0.89h-19.144
			c-2.287,0-4.346,0.799-5.796,2.249L118.378,137.88z"/>
	</g>
	<g>
		<g>
			<path class="st13" d="M188.495,148.127l-30.27-30.269c-2.9-2.9-2.9-7.602,0-10.502l21.959-21.959l40.772,40.772l-21.959,21.959
				C196.097,151.027,191.395,151.027,188.495,148.127z"/>
		</g>
	</g>
	<g>
		<g>
			<path class="st15" d="M188.495,148.127l-3.933-3.933l27.21-27.21l9.184,9.184l-21.959,21.959
				C196.097,151.027,191.395,151.027,188.495,148.127z"/>
		</g>
	</g>
	<g>
		<g>
			<path class="st14" d="M67.505,157.548l30.269-30.269c2.9-2.9,2.9-7.602,0-10.502L75.816,94.817l-40.772,40.772l21.959,21.959
				C59.903,160.448,64.605,160.448,67.505,157.548z"/>
		</g>
	</g>
	<g>
		<g>
			<path class="st16" d="M67.505,157.548l3.933-3.933l-27.21-27.21l-9.184,9.184l21.959,21.958
				C59.903,160.448,64.605,160.448,67.505,157.548z"/>
		</g>
	</g>
	<g>
		<g>
			<path class="st8" d="M99.271,182.754l-11.386,11.385c-2.583,2.583-6.77,2.583-9.352,0h0c-2.583-2.583-2.583-6.77,0-9.352
				l11.386-11.385c2.581-2.581,6.764-2.583,9.348-0.005l0,0C101.853,175.979,101.855,180.17,99.271,182.754z"/>
		</g>
	</g>
	<g>
		<g>
			<path class="st8" d="M108.622,192.106l-11.385,11.385c-2.583,2.583-6.77,2.583-9.352,0l0,0c-2.583-2.582-2.583-6.77,0-9.352
				l11.385-11.385c2.581-2.581,6.765-2.583,9.348-0.005l0,0C111.205,185.331,111.207,189.521,108.622,192.106z"/>
		</g>
	</g>
	<g>
		<g>
			<path class="st8" d="M117.974,201.457l-11.385,11.385c-2.583,2.583-6.77,2.583-9.352,0l0,0c-2.583-2.583-2.583-6.77,0-9.352
				l11.385-11.385c2.581-2.581,6.764-2.583,9.348-0.005l0,0C120.557,194.682,120.559,198.873,117.974,201.457z"/>
		</g>
	</g>
	<g>
		<g>
			<path class="st8" d="M127.326,210.809l-11.386,11.386c-2.583,2.583-6.77,2.583-9.352,0l0,0c-2.583-2.583-2.583-6.77,0-9.353
				l11.385-11.385c2.581-2.581,6.765-2.583,9.348-0.005l0,0C129.908,204.034,129.91,208.225,127.326,210.809z"/>
		</g>
	</g>
	<g>
		<g>
			<path class="st11" d="M83.209,199.076c-2.567,0-4.981-1-6.797-2.815c-3.748-3.748-3.748-9.847,0-13.595l11.385-11.386
				c1.815-1.816,4.229-2.816,6.798-2.816c2.563,0,4.976,0.998,6.79,2.81c1.819,1.814,2.822,4.229,2.823,6.8
				s-0.999,4.985-2.816,6.803l-11.386,11.385C88.19,198.076,85.776,199.076,83.209,199.076z M94.595,174.464
				c-0.966,0-1.873,0.376-2.556,1.059l-11.385,11.386c-1.408,1.409-1.408,3.701,0,5.11c1.365,1.363,3.744,1.363,5.109,0
				l11.386-11.386c0.683-0.684,1.059-1.591,1.059-2.557c-0.001-0.966-0.378-1.874-1.062-2.556
				C96.464,174.839,95.558,174.464,94.595,174.464z"/>
		</g>
	</g>
	<g>
		<g>
			<path class="st11" d="M92.561,208.428c-2.567,0-4.981-1-6.797-2.815c-1.816-1.814-2.816-4.229-2.816-6.797s1-4.982,2.816-6.798
				l11.386-11.385c1.814-1.815,4.229-2.816,6.797-2.816c2.564,0,4.977,0.998,6.791,2.81c1.819,1.815,2.821,4.23,2.822,6.8
				s-0.999,4.984-2.816,6.802l-11.385,11.385C97.542,207.428,95.128,208.428,92.561,208.428z M103.946,183.816
				c-0.965,0-1.872,0.376-2.554,1.059L90.006,196.26c-0.683,0.683-1.059,1.591-1.059,2.556s0.376,1.872,1.059,2.554
				c1.365,1.366,3.745,1.364,5.11,0l11.385-11.385c0.683-0.684,1.059-1.591,1.059-2.557s-0.377-1.873-1.061-2.556
				C105.816,184.191,104.91,183.816,103.946,183.816z"/>
		</g>
	</g>
	<g>
		<g>
			<path class="st11" d="M101.913,217.78c-2.568,0-4.982-1-6.798-2.816c-3.747-3.748-3.747-9.847-0.001-13.595l11.387-11.385
				c1.814-1.815,4.229-2.816,6.797-2.816c2.563,0,4.976,0.998,6.791,2.809c1.818,1.815,2.821,4.23,2.822,6.8
				s-0.998,4.985-2.815,6.802l-11.386,11.386C106.895,216.78,104.48,217.78,101.913,217.78z M113.298,193.168
				c-0.965,0-1.872,0.376-2.554,1.059l-11.387,11.385c-1.408,1.409-1.408,3.701,0.001,5.11c1.362,1.364,3.743,1.366,5.109,0
				l11.386-11.386c0.683-0.683,1.059-1.591,1.058-2.557c0-0.966-0.377-1.873-1.061-2.556
				C115.168,193.543,114.262,193.168,113.298,193.168z"/>
		</g>
	</g>
	<g>
		<g>
			<path class="st11" d="M111.265,227.132c-2.567,0-4.981-1-6.798-2.814c-3.748-3.75-3.748-9.849,0-13.596l11.386-11.386
				c1.815-1.816,4.229-2.816,6.798-2.816c2.563,0,4.976,0.998,6.79,2.81c1.818,1.814,2.821,4.229,2.822,6.8
				c0.001,2.569-0.998,4.985-2.815,6.802l-11.386,11.386C116.246,226.132,113.832,227.132,111.265,227.132z M122.65,202.52
				c-0.966,0-1.873,0.376-2.556,1.059l-11.386,11.386c-1.408,1.409-1.408,3.701,0.001,5.11c1.362,1.362,3.743,1.364,5.109,0
				l11.386-11.386c0.683-0.683,1.059-1.591,1.058-2.557c0-0.966-0.377-1.874-1.061-2.557
				C124.52,202.895,123.613,202.52,122.65,202.52z"/>
		</g>
	</g>
	<g>
		<g>
			<path class="st8" d="M135.636,134.978l-20.78,20.78c-2.583,2.583-6.77,2.583-9.352,0l0,0c-2.583-2.583-2.583-6.77,0-9.353
				l11.561-11.561"/>
		</g>
	</g>
	<g>
		<g>
			<path class="st11" d="M110.18,160.689c-2.461,0-4.923-0.937-6.797-2.81c-3.748-3.75-3.748-9.849,0-13.596l15.428-15.428
				c1.172-1.172,3.07-1.172,4.242,0c1.172,1.171,1.172,3.071,0,4.242l-15.428,15.428c-1.408,1.409-1.408,3.701,0.001,5.11
				c1.407,1.408,3.702,1.408,5.109-0.001l11.121-11.121c1.17-1.172,3.07-1.172,4.242,0c1.172,1.171,1.172,3.07,0,4.242
				l-11.121,11.122C115.104,159.753,112.642,160.689,110.18,160.689z"/>
		</g>
	</g>
	<g>
		<g>
			<path class="st11" d="M193.746,153.303c-2.785,0-5.403-1.085-7.373-3.055l-30.269-30.27c-1.97-1.969-3.055-4.588-3.055-7.372
				c0-2.785,1.085-5.403,3.055-7.373l21.959-21.958c1.172-1.172,3.07-1.172,4.242,0l40.771,40.771c1.172,1.171,1.172,3.071,0,4.242
				l-21.959,21.959C199.149,152.218,196.53,153.303,193.746,153.303z M180.185,89.639l-19.838,19.838
				c-0.836,0.836-1.297,1.947-1.297,3.13c0,1.182,0.461,2.294,1.297,3.13l30.27,30.27c0.836,0.836,1.947,1.297,3.13,1.297
				c1.182,0,2.294-0.461,3.13-1.297l19.838-19.838L180.185,89.639z"/>
		</g>
	</g>
	<g>
		<g>
			<path class="st11" d="M62.254,162.724c-2.784,0-5.403-1.085-7.372-3.055l-21.959-21.958c-0.563-0.563-0.879-1.325-0.879-2.121
				s0.316-1.559,0.879-2.121l40.771-40.772c1.125-1.125,3.117-1.125,4.242,0l21.959,21.959c1.97,1.969,3.055,4.588,3.055,7.372
				c0,2.785-1.085,5.403-3.055,7.373l-30.27,30.269C67.657,161.639,65.039,162.724,62.254,162.724z M39.286,135.59l19.838,19.837
				c0.836,0.836,1.948,1.297,3.13,1.297c1.183,0,2.294-0.461,3.129-1.297l30.271-30.27c0.836-0.836,1.297-1.947,1.297-3.13
				c0-1.182-0.461-2.294-1.297-3.13L75.815,99.06L39.286,135.59z"/>
		</g>
	</g>
	<g>
		<path class="st3" d="M94.498,49.572v2.392c0,21.477,8.139,42.156,22.777,57.872l8.236,8.843l8.236-8.843
			c14.638-15.716,22.777-36.395,22.777-57.872v-2.392l-31.013-17.905L94.498,49.572z"/>
	</g>
	<g>
		<path class="st11" d="M125.511,121.679c-0.833,0-1.628-0.346-2.195-0.955l-8.236-8.843C99.873,95.554,91.498,74.275,91.498,51.965
			v-2.393c0-1.072,0.572-2.063,1.5-2.598l31.013-17.905c0.928-0.537,2.072-0.537,3,0l31.013,17.905c0.928,0.535,1.5,1.525,1.5,2.598
			v2.393c0,22.311-8.375,43.589-23.581,59.916l-8.236,8.843C127.139,121.333,126.344,121.679,125.511,121.679z M97.498,51.305v0.66
			c0,20.788,7.803,40.614,21.972,55.826l6.041,6.486l6.041-6.486c14.169-15.212,21.972-35.038,21.972-55.826v-0.66l-28.013-16.174
			L97.498,51.305z"/>
	</g>
	<g>
		<path class="st11" d="M124.682,87.497c-0.772,0-1.518-0.298-2.078-0.836l-14.69-14.104c-1.194-1.147-1.233-3.047-0.086-4.242
			c1.147-1.196,3.047-1.232,4.242-0.086l12.357,11.865l18.943-22.95c1.054-1.276,2.944-1.46,4.224-0.403
			c1.277,1.055,1.458,2.945,0.403,4.224l-21.002,25.443c-0.531,0.644-1.307,1.036-2.14,1.085
			C124.797,87.495,124.739,87.497,124.682,87.497z"/>
	</g>
</g>
</svg>
