<?xml version="1.0" encoding="utf-8"?>
<!-- Generator: Adobe Illustrator 18.0.0, SVG Export Plug-In . SVG Version: 6.00 Build 0)  -->
<!DOCTYPE svg PUBLIC "-//W3C//DTD SVG 1.1//EN" "http://www.w3.org/Graphics/SVG/1.1/DTD/svg11.dtd">
<svg version="1.1" id="Icon_Set" xmlns="http://www.w3.org/2000/svg" xmlns:xlink="http://www.w3.org/1999/xlink" x="0px" y="0px"
	 viewBox="0 0 256 256" style="enable-background:new 0 0 256 256;" xml:space="preserve">
<style type="text/css">
	.st0{fill:#484771;}
	.st1{fill:#F1C48B;}
	.st2{fill:#D5E6F7;}
	.st3{fill:#A0D1F2;}
	.st4{fill:#FD919F;}
	.st5{fill:#E0667D;}
	.st6{fill:#504774;}
	.st7{fill:#7BACF1;}
	.st8{fill:#FFFFFF;}
	.st9{fill:#D4E7F8;}
	.st10{fill:#A3D0F1;}
	.st11{fill:#4C4372;}
	.st12{fill:#7BABF3;}
	.st13{fill:#FD919E;}
	.st14{fill:#D3E6F8;}
	.st15{fill:#E8677D;}
	.st16{fill:#A4CFF2;}
</style>
<g>
	<g>
		<circle class="st1" cx="128" cy="128" r="103.873"/>
	</g>
	<g>
		<rect x="76.424" y="62.769" class="st8" width="103.153" height="143.731"/>
	</g>
	<g>
		<rect x="165.21" y="62.769" class="st2" width="14.367" height="143.731"/>
	</g>
	<g>
		<rect x="76.424" y="178.536" class="st4" width="103.153" height="27.964"/>
	</g>
	<g>
		<rect x="165.21" y="178.536" class="st5" width="14.367" height="27.964"/>
	</g>
	<g>
		<path class="st6" d="M179.576,209.5H76.424c-1.657,0-3-1.343-3-3V62.769c0-1.657,1.343-3,3-3h103.152c1.657,0,3,1.343,3,3V206.5
			C182.576,208.157,181.233,209.5,179.576,209.5z M79.424,203.5h97.152V65.769H79.424V203.5z"/>
	</g>
	<g>
		<path class="st4" d="M116.691,71.872V45.5h22.619v26.372c0,6.246-5.063,11.309-11.309,11.309l0,0
			C121.754,83.182,116.691,78.118,116.691,71.872z"/>
	</g>
	<g>
		<path class="st5" d="M131.535,45.5v26.372c0,4.878-3.094,9.022-7.422,10.609c1.214,0.445,2.519,0.7,3.887,0.7
			c6.246,0,11.309-5.063,11.309-11.309V45.5H131.535z"/>
	</g>
	<g>
		<path class="st6" d="M128,86.182c-7.891,0-14.31-6.419-14.31-14.31V45.5c0-1.657,1.343-3,3-3h22.619c1.657,0,3,1.343,3,3v26.372
			C142.31,79.763,135.891,86.182,128,86.182z M119.69,48.5v23.372c0,4.582,3.728,8.31,8.31,8.31s8.31-3.728,8.31-8.31V48.5H119.69z"
			/>
	</g>
	<g>
		<circle class="st6" cx="128" cy="72.61" r="3.534"/>
	</g>
	<g>
		<path class="st3" d="M156.52,178.536H99.481v-21.571c0-7.885,6.392-14.278,14.278-14.278h28.484
			c7.885,0,14.278,6.392,14.278,14.278V178.536z"/>
	</g>
	<g>
		<path class="st12" d="M142.242,142.687h-13.327c7.885,0,14.277,6.392,14.277,14.278v21.571h13.327v-21.571
			C156.52,149.08,150.127,142.687,142.242,142.687z"/>
	</g>
	<g>
		<path class="st8" d="M128,130.966L128,130.966c-7.36,0-13.327-5.966-13.327-13.327v-7.108c0-7.36,5.966-13.327,13.327-13.327l0,0
			c7.36,0,13.327,5.967,13.327,13.327v7.108C141.327,125,135.36,130.966,128,130.966z"/>
	</g>
	<g>
		<path class="st6" d="M128,133.966c-9.002,0-16.326-7.324-16.326-16.326v-7.107c0-9.003,7.324-16.327,16.326-16.327
			c9.003,0,16.327,7.324,16.327,16.327v7.107C144.327,126.642,137.003,133.966,128,133.966z M128,100.205
			c-5.694,0-10.326,4.633-10.326,10.327v7.107c0,5.694,4.632,10.326,10.326,10.326s10.327-4.632,10.327-10.326v-7.107
			C138.327,104.838,133.694,100.205,128,100.205z"/>
	</g>
	<g>
		<path class="st6" d="M156.52,181.536H99.48c-1.657,0-3-1.343-3-3v-21.571c0-9.526,7.751-17.277,17.277-17.277h28.484
			c9.526,0,17.277,7.751,17.277,17.277v21.571C159.52,180.193,158.177,181.536,156.52,181.536z M102.48,175.536h51.039v-18.571
			c0-6.219-5.059-11.277-11.277-11.277h-28.484c-6.219,0-11.277,5.059-11.277,11.277V175.536z"/>
	</g>
	<g>
		<path class="st6" d="M179.576,209.5H76.424c-1.657,0-3-1.343-3-3v-27.964c0-1.657,1.343-3,3-3h103.152c1.657,0,3,1.343,3,3V206.5
			C182.576,208.157,181.233,209.5,179.576,209.5z M79.424,203.5h97.152v-21.964H79.424V203.5z"/>
	</g>
	<g>
		<path class="st6" d="M163.646,195.518H92.354c-1.657,0-3-1.343-3-3s1.343-3,3-3h71.291c1.657,0,3,1.343,3,3
			S165.303,195.518,163.646,195.518z"/>
	</g>
</g>
</svg>
